<svg xmlns="http://www.w3.org/2000/svg" xmlns:xlink="http://www.w3.org/1999/xlink" width="200" viewBox="0 0 375 374.999991" height="200" preserveAspectRatio="xMidYMid meet" version="1.0"><defs><g/></defs><path fill="#ef4136" d="M 185.230469 245.589844 C 185.230469 245.589844 125.058594 248.855469 107.847656 187.4375 L 121.222656 197.269531 C 121.222656 197.269531 104.5 159.195312 141.609375 113.746094 L 146.550781 136.269531 C 146.550781 136.269531 142.425781 65.558594 220.71875 48.722656 C 220.71875 48.722656 202.367188 83.570312 234.578125 146.980469 C 234.578125 146.980469 234.980469 131.78125 249.253906 127.269531 C 249.253906 127.269531 246.648438 137.746094 255.417969 152.628906 C 267.363281 172.914062 266.4375 198.503906 251.871094 216.992188 C 239.035156 233.277344 217.429688 246.359375 185.230469 245.589844 Z M 185.230469 245.589844 " fill-opacity="1" fill-rule="nonzero"/><path fill="#000000" d="M 183.5625 248.074219 C 178.972656 248.074219 166.316406 247.496094 152.105469 241.824219 C 135.894531 235.355469 114.667969 220.792969 105.5 188.109375 C 105.21875 187.109375 105.597656 186.03125 106.460938 185.433594 C 107.3125 184.832031 108.445312 184.847656 109.285156 185.46875 L 116.703125 190.921875 C 113.574219 177.449219 111.269531 147.027344 139.707031 112.191406 C 140.304688 111.472656 141.253906 111.140625 142.15625 111.359375 C 143.070312 111.582031 143.761719 112.300781 143.96875 113.207031 L 145.40625 119.738281 C 146.515625 113.402344 148.5 105.785156 152.03125 97.800781 C 160.265625 79.253906 178.753906 55.25 220.207031 46.324219 C 221.132812 46.128906 222.082031 46.484375 222.65625 47.242188 C 223.230469 48 223.3125 49.015625 222.863281 49.859375 C 222.691406 50.175781 206.761719 82.175781 233.640625 139.519531 C 235.6875 133.882812 240.109375 127.585938 248.523438 124.933594 C 249.363281 124.664062 250.289062 124.882812 250.921875 125.484375 C 251.566406 126.09375 251.835938 127 251.617188 127.855469 C 251.59375 127.941406 249.4375 137.675781 257.511719 151.378906 C 270.285156 173.070312 268.824219 199.421875 253.785156 218.507812 C 242.789062 232.457031 221.972656 248.902344 185.269531 248.046875 C 185.023438 248.046875 184.441406 248.074219 183.5625 248.074219 Z M 185.242188 243.144531 C 185.269531 243.144531 185.28125 243.144531 185.304688 243.144531 C 220.0625 243.964844 239.65625 228.546875 249.972656 215.460938 C 263.757812 197.976562 265.074219 173.804688 253.320312 153.863281 C 247.476562 143.945312 246.429688 135.816406 246.464844 131.09375 C 237.488281 136.085938 237.039062 146.539062 237.015625 147.039062 C 236.976562 148.152344 236.199219 149.105469 235.113281 149.351562 C 234.019531 149.59375 232.921875 149.070312 232.410156 148.078125 C 206.25 96.601562 212.792969 63.710938 216.699219 52.167969 C 187.484375 59.53125 167.242188 75.546875 156.503906 99.804688 C 148.085938 118.832031 148.976562 135.960938 148.988281 136.132812 C 149.0625 137.40625 148.148438 138.515625 146.894531 138.699219 C 145.640625 138.882812 144.457031 138.054688 144.175781 136.804688 L 140.339844 119.332031 C 130.828125 132 120.683594 150.476562 119.941406 172.351562 C 119.457031 186.898438 123.414062 196.191406 123.449219 196.289062 C 123.886719 197.304688 123.597656 198.492188 122.742188 199.175781 C 121.878906 199.859375 120.671875 199.898438 119.785156 199.238281 L 112.476562 193.871094 C 120.078125 214.679688 133.921875 229.242188 153.726562 237.203125 C 170.25 243.839844 184.964844 243.15625 185.109375 243.144531 C 185.144531 243.144531 185.195312 243.144531 185.242188 243.144531 Z M 185.242188 243.144531 " fill-opacity="1" fill-rule="nonzero"/><path fill="#ffdb00" d="M 172.613281 234.035156 C 154.394531 227.371094 132.195312 210.15625 143.59375 162.910156 C 143.957031 161.382812 145.992188 161.050781 146.808594 162.398438 C 150.21875 168.082031 157.429688 178.585938 165.769531 182.070312 C 169.191406 183.5 172.640625 180.078125 171.238281 176.628906 C 164.785156 160.78125 151.933594 117.277344 183.734375 77.1875 C 184.828125 75.804688 187.046875 76.710938 186.839844 78.457031 C 185.097656 93.398438 183.804688 131.988281 213.679688 146.980469 C 246.976562 163.691406 246.585938 222.578125 205.046875 235.332031 C 194.425781 238.585938 183.039062 237.851562 172.613281 234.035156 Z M 172.613281 234.035156 " fill-opacity="1" fill-rule="nonzero"/><path fill="#ffffff" d="M 202.085938 224.964844 C 196.253906 232.996094 184.207031 233.582031 178.144531 225.722656 C 174.183594 220.597656 173.589844 212.648438 183.953125 200.632812 C 201.246094 180.578125 188.789062 157.25 180.796875 146.109375 C 180.226562 145.304688 181.273438 144.351562 182.003906 145.023438 C 196.132812 157.886719 226.40625 191.449219 202.085938 224.964844 Z M 202.085938 224.964844 " fill-opacity="1" fill-rule="nonzero"/></svg>