<svg xmlns="http://www.w3.org/2000/svg" xmlns:xlink="http://www.w3.org/1999/xlink" width="500" zoomAndPan="magnify" viewBox="0 0 375 374.999991" height="500" preserveAspectRatio="xMidYMid meet" version="1.0"><defs><g/></defs><path fill="#ef4136" d="M 185.230469 245.589844 C 185.230469 245.589844 125.058594 248.855469 107.847656 187.4375 L 121.222656 197.269531 C 121.222656 197.269531 104.5 159.195312 141.609375 113.746094 L 146.550781 136.269531 C 146.550781 136.269531 142.425781 65.558594 220.71875 48.722656 C 220.71875 48.722656 202.367188 83.570312 234.578125 146.980469 C 234.578125 146.980469 234.980469 131.78125 249.253906 127.269531 C 249.253906 127.269531 246.648438 137.746094 255.417969 152.628906 C 267.363281 172.914062 266.4375 198.503906 251.871094 216.992188 C 239.035156 233.277344 217.429688 246.359375 185.230469 245.589844 Z M 185.230469 245.589844 " fill-opacity="1" fill-rule="nonzero"/><path fill="#000000" d="M 183.5625 248.074219 C 178.972656 248.074219 166.316406 247.496094 152.105469 241.824219 C 135.894531 235.355469 114.667969 220.792969 105.5 188.109375 C 105.21875 187.109375 105.597656 186.03125 106.460938 185.433594 C 107.3125 184.832031 108.445312 184.847656 109.285156 185.46875 L 116.703125 190.921875 C 113.574219 177.449219 111.269531 147.027344 139.707031 112.191406 C 140.304688 111.472656 141.253906 111.140625 142.15625 111.359375 C 143.070312 111.582031 143.761719 112.300781 143.96875 113.207031 L 145.40625 119.738281 C 146.515625 113.402344 148.5 105.785156 152.03125 97.800781 C 160.265625 79.253906 178.753906 55.25 220.207031 46.324219 C 221.132812 46.128906 222.082031 46.484375 222.65625 47.242188 C 223.230469 48 223.3125 49.015625 222.863281 49.859375 C 222.691406 50.175781 206.761719 82.175781 233.640625 139.519531 C 235.6875 133.882812 240.109375 127.585938 248.523438 124.933594 C 249.363281 124.664062 250.289062 124.882812 250.921875 125.484375 C 251.566406 126.09375 251.835938 127 251.617188 127.855469 C 251.59375 127.941406 249.4375 137.675781 257.511719 151.378906 C 270.285156 173.070312 268.824219 199.421875 253.785156 218.507812 C 242.789062 232.457031 221.972656 248.902344 185.269531 248.046875 C 185.023438 248.046875 184.441406 248.074219 183.5625 248.074219 Z M 185.242188 243.144531 C 185.269531 243.144531 185.28125 243.144531 185.304688 243.144531 C 220.0625 243.964844 239.65625 228.546875 249.972656 215.460938 C 263.757812 197.976562 265.074219 173.804688 253.320312 153.863281 C 247.476562 143.945312 246.429688 135.816406 246.464844 131.09375 C 237.488281 136.085938 237.039062 146.539062 237.015625 147.039062 C 236.976562 148.152344 236.199219 149.105469 235.113281 149.351562 C 234.019531 149.59375 232.921875 149.070312 232.410156 148.078125 C 206.25 96.601562 212.792969 63.710938 216.699219 52.167969 C 187.484375 59.53125 167.242188 75.546875 156.503906 99.804688 C 148.085938 118.832031 148.976562 135.960938 148.988281 136.132812 C 149.0625 137.40625 148.148438 138.515625 146.894531 138.699219 C 145.640625 138.882812 144.457031 138.054688 144.175781 136.804688 L 140.339844 119.332031 C 130.828125 132 120.683594 150.476562 119.941406 172.351562 C 119.457031 186.898438 123.414062 196.191406 123.449219 196.289062 C 123.886719 197.304688 123.597656 198.492188 122.742188 199.175781 C 121.878906 199.859375 120.671875 199.898438 119.785156 199.238281 L 112.476562 193.871094 C 120.078125 214.679688 133.921875 229.242188 153.726562 237.203125 C 170.25 243.839844 184.964844 243.15625 185.109375 243.144531 C 185.144531 243.144531 185.195312 243.144531 185.242188 243.144531 Z M 185.242188 243.144531 " fill-opacity="1" fill-rule="nonzero"/><path fill="#ffdb00" d="M 172.613281 234.035156 C 154.394531 227.371094 132.195312 210.15625 143.59375 162.910156 C 143.957031 161.382812 145.992188 161.050781 146.808594 162.398438 C 150.21875 168.082031 157.429688 178.585938 165.769531 182.070312 C 169.191406 183.5 172.640625 180.078125 171.238281 176.628906 C 164.785156 160.78125 151.933594 117.277344 183.734375 77.1875 C 184.828125 75.804688 187.046875 76.710938 186.839844 78.457031 C 185.097656 93.398438 183.804688 131.988281 213.679688 146.980469 C 246.976562 163.691406 246.585938 222.578125 205.046875 235.332031 C 194.425781 238.585938 183.039062 237.851562 172.613281 234.035156 Z M 172.613281 234.035156 " fill-opacity="1" fill-rule="nonzero"/><path fill="#ffffff" d="M 202.085938 224.964844 C 196.253906 232.996094 184.207031 233.582031 178.144531 225.722656 C 174.183594 220.597656 173.589844 212.648438 183.953125 200.632812 C 201.246094 180.578125 188.789062 157.25 180.796875 146.109375 C 180.226562 145.304688 181.273438 144.351562 182.003906 145.023438 C 196.132812 157.886719 226.40625 191.449219 202.085938 224.964844 Z M 202.085938 224.964844 " fill-opacity="1" fill-rule="nonzero"/><g fill="#f17604" fill-opacity="1"><g transform="translate(102.749997, 299.837558)"><g><path d="M 11.078125 -1.828125 C 11.722656 -1.828125 12.289062 -1.898438 12.78125 -2.046875 C 13.28125 -2.191406 13.722656 -2.382812 14.109375 -2.625 C 14.503906 -2.863281 14.847656 -3.128906 15.140625 -3.421875 C 15.429688 -3.722656 15.6875 -4.019531 15.90625 -4.3125 C 16.050781 -4.207031 16.160156 -4.046875 16.234375 -3.828125 C 16.316406 -3.617188 16.359375 -3.40625 16.359375 -3.1875 C 16.359375 -2.820312 16.257812 -2.4375 16.0625 -2.03125 C 15.875 -1.625 15.546875 -1.25 15.078125 -0.90625 C 14.617188 -0.570312 14.007812 -0.296875 13.25 -0.078125 C 12.5 0.140625 11.566406 0.25 10.453125 0.25 C 8.941406 0.25 7.617188 0.0195312 6.484375 -0.4375 C 5.359375 -0.894531 4.421875 -1.539062 3.671875 -2.375 C 2.929688 -3.21875 2.375 -4.226562 2 -5.40625 C 1.625 -6.59375 1.4375 -7.90625 1.4375 -9.34375 C 1.4375 -10.75 1.628906 -12.035156 2.015625 -13.203125 C 2.398438 -14.378906 2.96875 -15.390625 3.71875 -16.234375 C 4.46875 -17.078125 5.40625 -17.726562 6.53125 -18.1875 C 7.65625 -18.65625 8.957031 -18.890625 10.4375 -18.890625 C 11.4375 -18.890625 12.304688 -18.8125 13.046875 -18.65625 C 13.796875 -18.5 14.414062 -18.285156 14.90625 -18.015625 C 15.394531 -17.742188 15.765625 -17.421875 16.015625 -17.046875 C 16.265625 -16.679688 16.390625 -16.285156 16.390625 -15.859375 C 16.390625 -15.535156 16.316406 -15.234375 16.171875 -14.953125 C 16.035156 -14.679688 15.828125 -14.441406 15.546875 -14.234375 C 15.273438 -14.035156 14.929688 -13.878906 14.515625 -13.765625 C 14.109375 -13.648438 13.644531 -13.59375 13.125 -13.59375 C 13.125 -14.03125 13.078125 -14.460938 12.984375 -14.890625 C 12.890625 -15.316406 12.726562 -15.703125 12.5 -16.046875 C 12.28125 -16.398438 11.988281 -16.679688 11.625 -16.890625 C 11.257812 -17.109375 10.800781 -17.21875 10.25 -17.21875 C 9.425781 -17.21875 8.726562 -17.046875 8.15625 -16.703125 C 7.59375 -16.359375 7.140625 -15.847656 6.796875 -15.171875 C 6.453125 -14.503906 6.203125 -13.675781 6.046875 -12.6875 C 5.898438 -11.707031 5.828125 -10.59375 5.828125 -9.34375 C 5.828125 -8.082031 5.921875 -6.976562 6.109375 -6.03125 C 6.296875 -5.09375 6.59375 -4.3125 7 -3.6875 C 7.414062 -3.0625 7.957031 -2.59375 8.625 -2.28125 C 9.289062 -1.976562 10.109375 -1.828125 11.078125 -1.828125 Z M 11.078125 -1.828125 "/></g></g></g><g fill="#f17604" fill-opacity="1"><g transform="translate(120.182415, 299.837558)"><g><path d="M 7.75 -12.625 C 7.019531 -12.625 6.4375 -12.257812 6 -11.53125 C 5.570312 -10.8125 5.335938 -9.757812 5.296875 -8.375 L 9.8125 -8.375 C 9.8125 -9.03125 9.769531 -9.617188 9.6875 -10.140625 C 9.613281 -10.671875 9.492188 -11.117188 9.328125 -11.484375 C 9.160156 -11.859375 8.945312 -12.140625 8.6875 -12.328125 C 8.4375 -12.523438 8.125 -12.625 7.75 -12.625 Z M 7.984375 0.25 C 6.878906 0.25 5.90625 0.0859375 5.0625 -0.234375 C 4.21875 -0.554688 3.507812 -1.019531 2.9375 -1.625 C 2.375 -2.238281 1.945312 -2.988281 1.65625 -3.875 C 1.363281 -4.769531 1.21875 -5.785156 1.21875 -6.921875 C 1.21875 -8.140625 1.363281 -9.210938 1.65625 -10.140625 C 1.945312 -11.066406 2.367188 -11.835938 2.921875 -12.453125 C 3.472656 -13.078125 4.148438 -13.546875 4.953125 -13.859375 C 5.753906 -14.171875 6.671875 -14.328125 7.703125 -14.328125 C 8.640625 -14.328125 9.484375 -14.191406 10.234375 -13.921875 C 10.992188 -13.648438 11.632812 -13.25 12.15625 -12.71875 C 12.6875 -12.195312 13.09375 -11.546875 13.375 -10.765625 C 13.65625 -9.984375 13.796875 -9.078125 13.796875 -8.046875 L 13.796875 -6.703125 L 5.25 -6.703125 C 5.269531 -5.828125 5.363281 -5.070312 5.53125 -4.4375 C 5.695312 -3.8125 5.925781 -3.296875 6.21875 -2.890625 C 6.507812 -2.484375 6.863281 -2.179688 7.28125 -1.984375 C 7.707031 -1.785156 8.191406 -1.6875 8.734375 -1.6875 C 9.191406 -1.6875 9.609375 -1.738281 9.984375 -1.84375 C 10.367188 -1.957031 10.71875 -2.109375 11.03125 -2.296875 C 11.34375 -2.492188 11.613281 -2.71875 11.84375 -2.96875 C 12.070312 -3.226562 12.265625 -3.507812 12.421875 -3.8125 C 12.890625 -3.550781 13.125 -3.125 13.125 -2.53125 C 13.125 -2.15625 13.019531 -1.800781 12.8125 -1.46875 C 12.613281 -1.132812 12.300781 -0.835938 11.875 -0.578125 C 11.445312 -0.328125 10.910156 -0.128906 10.265625 0.015625 C 9.628906 0.171875 8.867188 0.25 7.984375 0.25 Z M 7.984375 0.25 "/></g></g></g><g fill="#f17604" fill-opacity="1"><g transform="translate(135.078982, 299.837558)"><g><path d="M 15.703125 -7.046875 C 15.703125 -5.773438 15.585938 -4.679688 15.359375 -3.765625 C 15.128906 -2.847656 14.785156 -2.085938 14.328125 -1.484375 C 13.878906 -0.890625 13.320312 -0.453125 12.65625 -0.171875 C 11.988281 0.109375 11.222656 0.25 10.359375 0.25 C 9.859375 0.25 9.40625 0.191406 9 0.078125 C 8.59375 -0.0234375 8.222656 -0.175781 7.890625 -0.375 C 7.566406 -0.582031 7.28125 -0.828125 7.03125 -1.109375 C 6.78125 -1.390625 6.5625 -1.695312 6.375 -2.03125 L 6.125 -2.03125 L 5.40625 0 L 0.453125 0 L 0.453125 -1.390625 L 0.625 -1.390625 C 0.875 -1.390625 1.113281 -1.410156 1.34375 -1.453125 C 1.582031 -1.492188 1.796875 -1.578125 1.984375 -1.703125 C 2.171875 -1.828125 2.320312 -2.007812 2.4375 -2.25 C 2.550781 -2.488281 2.609375 -2.804688 2.609375 -3.203125 L 2.609375 -16.703125 C 2.609375 -17.078125 2.550781 -17.375 2.4375 -17.59375 C 2.332031 -17.820312 2.1875 -18 2 -18.125 C 1.8125 -18.257812 1.59375 -18.347656 1.34375 -18.390625 C 1.09375 -18.429688 0.828125 -18.453125 0.546875 -18.453125 L 0.453125 -18.453125 L 0.453125 -19.828125 L 6.578125 -19.828125 L 6.578125 -15.359375 C 6.578125 -15.085938 6.566406 -14.769531 6.546875 -14.40625 C 6.523438 -14.039062 6.5 -13.695312 6.46875 -13.375 C 6.4375 -13 6.40625 -12.609375 6.375 -12.203125 L 6.546875 -12.203125 C 6.921875 -12.847656 7.421875 -13.359375 8.046875 -13.734375 C 8.671875 -14.109375 9.472656 -14.296875 10.453125 -14.296875 C 11.304688 -14.296875 12.054688 -14.148438 12.703125 -13.859375 C 13.359375 -13.578125 13.90625 -13.140625 14.34375 -12.546875 C 14.789062 -11.960938 15.128906 -11.210938 15.359375 -10.296875 C 15.585938 -9.390625 15.703125 -8.304688 15.703125 -7.046875 Z M 9.234375 -12.375 C 8.710938 -12.375 8.28125 -12.265625 7.9375 -12.046875 C 7.601562 -11.828125 7.332031 -11.492188 7.125 -11.046875 C 6.925781 -10.609375 6.785156 -10.054688 6.703125 -9.390625 C 6.617188 -8.722656 6.578125 -7.941406 6.578125 -7.046875 C 6.578125 -6.191406 6.617188 -5.429688 6.703125 -4.765625 C 6.785156 -4.097656 6.925781 -3.535156 7.125 -3.078125 C 7.332031 -2.617188 7.609375 -2.269531 7.953125 -2.03125 C 8.304688 -1.800781 8.742188 -1.6875 9.265625 -1.6875 C 10.117188 -1.6875 10.738281 -2.148438 11.125 -3.078125 C 11.507812 -4.003906 11.703125 -5.335938 11.703125 -7.078125 C 11.703125 -8.847656 11.507812 -10.171875 11.125 -11.046875 C 10.738281 -11.929688 10.109375 -12.375 9.234375 -12.375 Z M 9.234375 -12.375 "/></g></g></g><g fill="#f17604" fill-opacity="1"><g transform="translate(152.014429, 299.837558)"><g><path d="M 11.5625 0 L 10.984375 -1.84375 L 10.859375 -1.84375 C 10.585938 -1.394531 10.300781 -1.03125 10 -0.75 C 9.695312 -0.476562 9.367188 -0.265625 9.015625 -0.109375 C 8.671875 0.0351562 8.304688 0.128906 7.921875 0.171875 C 7.535156 0.222656 7.140625 0.25 6.734375 0.25 C 5.367188 0.25 4.320312 -0.164062 3.59375 -1 C 2.875 -1.84375 2.515625 -3.144531 2.515625 -4.90625 L 2.515625 -10.75 C 2.515625 -11.132812 2.476562 -11.445312 2.40625 -11.6875 C 2.34375 -11.925781 2.238281 -12.113281 2.09375 -12.25 C 1.945312 -12.382812 1.757812 -12.472656 1.53125 -12.515625 C 1.3125 -12.566406 1.039062 -12.59375 0.71875 -12.59375 L 0.671875 -12.59375 L 0.671875 -13.984375 L 6.46875 -13.984375 L 6.46875 -5.625 C 6.46875 -5.070312 6.5 -4.566406 6.5625 -4.109375 C 6.625 -3.660156 6.734375 -3.273438 6.890625 -2.953125 C 7.046875 -2.640625 7.25 -2.394531 7.5 -2.21875 C 7.757812 -2.050781 8.078125 -1.96875 8.453125 -1.96875 C 8.867188 -1.96875 9.226562 -2.054688 9.53125 -2.234375 C 9.832031 -2.421875 10.078125 -2.6875 10.265625 -3.03125 C 10.460938 -3.375 10.601562 -3.785156 10.6875 -4.265625 C 10.78125 -4.753906 10.828125 -5.304688 10.828125 -5.921875 L 10.828125 -10.9375 C 10.828125 -11.3125 10.773438 -11.609375 10.671875 -11.828125 C 10.578125 -12.054688 10.441406 -12.226562 10.265625 -12.34375 C 10.097656 -12.457031 9.898438 -12.523438 9.671875 -12.546875 C 9.441406 -12.578125 9.195312 -12.59375 8.9375 -12.59375 L 8.875 -12.59375 L 8.875 -13.984375 L 14.796875 -13.984375 L 14.796875 -3.03125 C 14.796875 -2.644531 14.835938 -2.34375 14.921875 -2.125 C 15.015625 -1.914062 15.132812 -1.753906 15.28125 -1.640625 C 15.4375 -1.535156 15.617188 -1.46875 15.828125 -1.4375 C 16.046875 -1.40625 16.28125 -1.390625 16.53125 -1.390625 L 16.75 -1.390625 L 16.75 0 Z M 11.5625 0 "/></g></g></g><g fill="#f17604" fill-opacity="1"><g transform="translate(169.421361, 299.837558)"><g><path d="M 0.75 -1.390625 C 0.945312 -1.390625 1.148438 -1.40625 1.359375 -1.4375 C 1.578125 -1.476562 1.78125 -1.554688 1.96875 -1.671875 C 2.15625 -1.796875 2.304688 -1.96875 2.421875 -2.1875 C 2.546875 -2.40625 2.609375 -2.703125 2.609375 -3.078125 L 2.609375 -16.859375 C 2.609375 -17.203125 2.546875 -17.476562 2.421875 -17.6875 C 2.304688 -17.894531 2.15625 -18.054688 1.96875 -18.171875 C 1.78125 -18.285156 1.578125 -18.359375 1.359375 -18.390625 C 1.140625 -18.429688 0.9375 -18.453125 0.75 -18.453125 L 0.453125 -18.453125 L 0.453125 -19.828125 L 6.578125 -19.828125 L 6.578125 -3.078125 C 6.578125 -2.703125 6.632812 -2.40625 6.75 -2.1875 C 6.875 -1.96875 7.023438 -1.796875 7.203125 -1.671875 C 7.390625 -1.554688 7.59375 -1.476562 7.8125 -1.4375 C 8.039062 -1.40625 8.25 -1.390625 8.4375 -1.390625 L 8.734375 -1.390625 L 8.734375 0 L 0.453125 0 L 0.453125 -1.390625 Z M 0.75 -1.390625 "/></g></g></g><g fill="#f17604" fill-opacity="1"><g transform="translate(178.609066, 299.837558)"><g><path d="M 5.21875 -3.890625 C 5.21875 -3.140625 5.335938 -2.578125 5.578125 -2.203125 C 5.816406 -1.828125 6.191406 -1.640625 6.703125 -1.640625 C 7.078125 -1.640625 7.414062 -1.71875 7.71875 -1.875 C 8.019531 -2.03125 8.273438 -2.253906 8.484375 -2.546875 C 8.703125 -2.835938 8.867188 -3.1875 8.984375 -3.59375 C 9.097656 -4.007812 9.15625 -4.472656 9.15625 -4.984375 L 9.15625 -6.9375 L 7.984375 -6.875 C 7.472656 -6.84375 7.035156 -6.753906 6.671875 -6.609375 C 6.316406 -6.472656 6.03125 -6.28125 5.8125 -6.03125 C 5.601562 -5.789062 5.453125 -5.488281 5.359375 -5.125 C 5.265625 -4.769531 5.21875 -4.359375 5.21875 -3.890625 Z M 7.546875 -12.734375 C 7.210938 -12.734375 6.929688 -12.660156 6.703125 -12.515625 C 6.484375 -12.378906 6.304688 -12.1875 6.171875 -11.9375 C 6.035156 -11.6875 5.9375 -11.390625 5.875 -11.046875 C 5.820312 -10.703125 5.796875 -10.320312 5.796875 -9.90625 C 4.617188 -9.90625 3.734375 -10.035156 3.140625 -10.296875 C 2.554688 -10.566406 2.265625 -11.019531 2.265625 -11.65625 C 2.265625 -12.132812 2.40625 -12.539062 2.6875 -12.875 C 2.976562 -13.21875 3.367188 -13.492188 3.859375 -13.703125 C 4.347656 -13.921875 4.914062 -14.078125 5.5625 -14.171875 C 6.207031 -14.273438 6.898438 -14.328125 7.640625 -14.328125 C 8.554688 -14.328125 9.359375 -14.242188 10.046875 -14.078125 C 10.734375 -13.921875 11.300781 -13.671875 11.75 -13.328125 C 12.207031 -12.984375 12.550781 -12.523438 12.78125 -11.953125 C 13.007812 -11.390625 13.125 -10.703125 13.125 -9.890625 L 13.125 -3.234375 C 13.125 -2.878906 13.148438 -2.582031 13.203125 -2.34375 C 13.253906 -2.101562 13.335938 -1.910156 13.453125 -1.765625 C 13.578125 -1.628906 13.738281 -1.53125 13.9375 -1.46875 C 14.144531 -1.414062 14.394531 -1.390625 14.6875 -1.390625 L 14.796875 -1.390625 L 14.796875 0 L 9.9375 0 L 9.390625 -1.796875 L 9.15625 -1.796875 C 8.875 -1.453125 8.601562 -1.148438 8.34375 -0.890625 C 8.09375 -0.628906 7.820312 -0.410156 7.53125 -0.234375 C 7.238281 -0.0664062 6.910156 0.0507812 6.546875 0.125 C 6.191406 0.207031 5.769531 0.25 5.28125 0.25 C 4.695312 0.25 4.15625 0.164062 3.65625 0 C 3.164062 -0.164062 2.734375 -0.425781 2.359375 -0.78125 C 1.992188 -1.132812 1.703125 -1.578125 1.484375 -2.109375 C 1.273438 -2.640625 1.171875 -3.265625 1.171875 -3.984375 C 1.171875 -5.398438 1.65625 -6.445312 2.625 -7.125 C 3.601562 -7.8125 5.066406 -8.1875 7.015625 -8.25 L 9.15625 -8.3125 L 9.15625 -9.765625 C 9.15625 -10.191406 9.140625 -10.585938 9.109375 -10.953125 C 9.078125 -11.316406 9.003906 -11.628906 8.890625 -11.890625 C 8.785156 -12.160156 8.625 -12.367188 8.40625 -12.515625 C 8.1875 -12.660156 7.898438 -12.734375 7.546875 -12.734375 Z M 7.546875 -12.734375 "/></g></g></g><g fill="#f17604" fill-opacity="1"><g transform="translate(194.244727, 299.837558)"><g><path d="M 6.890625 0.25 C 5.722656 0.25 4.75 0.140625 3.96875 -0.078125 C 3.1875 -0.296875 2.554688 -0.578125 2.078125 -0.921875 C 1.609375 -1.273438 1.273438 -1.664062 1.078125 -2.09375 C 0.878906 -2.53125 0.78125 -2.960938 0.78125 -3.390625 C 0.78125 -3.835938 0.863281 -4.210938 1.03125 -4.515625 C 1.195312 -4.828125 1.414062 -5.078125 1.6875 -5.265625 C 1.96875 -5.460938 2.28125 -5.601562 2.625 -5.6875 C 2.976562 -5.78125 3.347656 -5.828125 3.734375 -5.828125 C 3.734375 -5.078125 3.820312 -4.414062 4 -3.84375 C 4.175781 -3.28125 4.421875 -2.8125 4.734375 -2.4375 C 5.054688 -2.0625 5.4375 -1.773438 5.875 -1.578125 C 6.3125 -1.390625 6.785156 -1.296875 7.296875 -1.296875 C 7.804688 -1.296875 8.257812 -1.367188 8.65625 -1.515625 C 9.0625 -1.660156 9.40625 -1.859375 9.6875 -2.109375 C 9.96875 -2.367188 10.175781 -2.671875 10.3125 -3.015625 C 10.457031 -3.359375 10.53125 -3.726562 10.53125 -4.125 C 10.53125 -4.570312 10.441406 -4.96875 10.265625 -5.3125 C 10.085938 -5.65625 9.816406 -5.972656 9.453125 -6.265625 C 9.097656 -6.554688 8.644531 -6.832031 8.09375 -7.09375 C 7.550781 -7.363281 6.910156 -7.65625 6.171875 -7.96875 C 5.265625 -8.34375 4.5 -8.722656 3.875 -9.109375 C 3.25 -9.503906 2.742188 -9.929688 2.359375 -10.390625 C 1.984375 -10.847656 1.710938 -11.34375 1.546875 -11.875 C 1.378906 -12.414062 1.296875 -13.003906 1.296875 -13.640625 C 1.296875 -14.441406 1.457031 -15.164062 1.78125 -15.8125 C 2.101562 -16.457031 2.546875 -17.007812 3.109375 -17.46875 C 3.679688 -17.925781 4.359375 -18.273438 5.140625 -18.515625 C 5.921875 -18.765625 6.773438 -18.890625 7.703125 -18.890625 C 8.660156 -18.890625 9.484375 -18.8125 10.171875 -18.65625 C 10.867188 -18.5 11.445312 -18.285156 11.90625 -18.015625 C 12.363281 -17.742188 12.703125 -17.421875 12.921875 -17.046875 C 13.140625 -16.679688 13.25 -16.285156 13.25 -15.859375 C 13.25 -15.554688 13.179688 -15.269531 13.046875 -15 C 12.921875 -14.738281 12.722656 -14.507812 12.453125 -14.3125 C 12.179688 -14.125 11.84375 -13.972656 11.4375 -13.859375 C 11.039062 -13.753906 10.578125 -13.703125 10.046875 -13.703125 C 10.046875 -14.066406 9.992188 -14.457031 9.890625 -14.875 C 9.796875 -15.289062 9.632812 -15.679688 9.40625 -16.046875 C 9.1875 -16.410156 8.898438 -16.707031 8.546875 -16.9375 C 8.203125 -17.175781 7.78125 -17.296875 7.28125 -17.296875 C 6.925781 -17.296875 6.59375 -17.242188 6.28125 -17.140625 C 5.96875 -17.046875 5.691406 -16.894531 5.453125 -16.6875 C 5.222656 -16.488281 5.039062 -16.238281 4.90625 -15.9375 C 4.769531 -15.632812 4.703125 -15.285156 4.703125 -14.890625 C 4.703125 -14.523438 4.757812 -14.179688 4.875 -13.859375 C 5 -13.535156 5.21875 -13.21875 5.53125 -12.90625 C 5.851562 -12.601562 6.289062 -12.296875 6.84375 -11.984375 C 7.40625 -11.671875 8.128906 -11.335938 9.015625 -10.984375 C 9.898438 -10.617188 10.65625 -10.242188 11.28125 -9.859375 C 11.914062 -9.472656 12.429688 -9.0625 12.828125 -8.625 C 13.234375 -8.1875 13.523438 -7.707031 13.703125 -7.1875 C 13.890625 -6.664062 13.984375 -6.085938 13.984375 -5.453125 C 13.984375 -4.609375 13.816406 -3.835938 13.484375 -3.140625 C 13.160156 -2.441406 12.6875 -1.84375 12.0625 -1.34375 C 11.445312 -0.84375 10.703125 -0.453125 9.828125 -0.171875 C 8.960938 0.109375 7.984375 0.25 6.890625 0.25 Z M 6.890625 0.25 "/></g></g></g><g fill="#f17604" fill-opacity="1"><g transform="translate(209.536321, 299.837558)"><g><path d="M 0.65625 4.875 C 0.84375 4.875 1.046875 4.851562 1.265625 4.8125 C 1.484375 4.78125 1.679688 4.703125 1.859375 4.578125 C 2.046875 4.460938 2.203125 4.296875 2.328125 4.078125 C 2.453125 3.859375 2.515625 3.5625 2.515625 3.1875 L 2.515625 -10.78125 C 2.515625 -11.175781 2.46875 -11.492188 2.375 -11.734375 C 2.289062 -11.972656 2.164062 -12.15625 2 -12.28125 C 1.84375 -12.40625 1.65625 -12.488281 1.4375 -12.53125 C 1.226562 -12.570312 1 -12.59375 0.75 -12.59375 L 0.578125 -12.59375 L 0.578125 -13.984375 L 5.6875 -13.984375 L 6.15625 -11.953125 L 6.265625 -11.953125 C 6.453125 -12.285156 6.671875 -12.59375 6.921875 -12.875 C 7.171875 -13.15625 7.457031 -13.394531 7.78125 -13.59375 C 8.113281 -13.800781 8.484375 -13.960938 8.890625 -14.078125 C 9.296875 -14.191406 9.75 -14.25 10.25 -14.25 C 11.125 -14.25 11.894531 -14.101562 12.5625 -13.8125 C 13.226562 -13.53125 13.785156 -13.085938 14.234375 -12.484375 C 14.679688 -11.890625 15.019531 -11.132812 15.25 -10.21875 C 15.488281 -9.300781 15.609375 -8.207031 15.609375 -6.9375 C 15.609375 -5.6875 15.492188 -4.601562 15.265625 -3.6875 C 15.035156 -2.769531 14.695312 -2.015625 14.25 -1.421875 C 13.800781 -0.828125 13.25 -0.390625 12.59375 -0.109375 C 11.945312 0.171875 11.203125 0.3125 10.359375 0.3125 C 9.367188 0.3125 8.5625 0.125 7.9375 -0.25 C 7.3125 -0.625 6.816406 -1.128906 6.453125 -1.765625 L 6.265625 -1.765625 C 6.296875 -1.367188 6.332031 -0.976562 6.375 -0.59375 C 6.394531 -0.269531 6.414062 0.0703125 6.4375 0.4375 C 6.457031 0.800781 6.46875 1.117188 6.46875 1.390625 L 6.46875 3.1875 C 6.46875 3.5625 6.53125 3.859375 6.65625 4.078125 C 6.78125 4.296875 6.929688 4.460938 7.109375 4.578125 C 7.296875 4.703125 7.5 4.78125 7.71875 4.8125 C 7.9375 4.851562 8.132812 4.875 8.3125 4.875 L 8.890625 4.875 L 8.890625 6.265625 L 0.34375 6.265625 L 0.34375 4.875 Z M 9.140625 -1.625 C 10.015625 -1.625 10.640625 -2.0625 11.015625 -2.9375 C 11.390625 -3.8125 11.578125 -5.140625 11.578125 -6.921875 C 11.578125 -8.648438 11.390625 -9.976562 11.015625 -10.90625 C 10.640625 -11.832031 10.019531 -12.296875 9.15625 -12.296875 C 8.644531 -12.296875 8.210938 -12.175781 7.859375 -11.9375 C 7.515625 -11.707031 7.238281 -11.363281 7.03125 -10.90625 C 6.832031 -10.457031 6.6875 -9.898438 6.59375 -9.234375 C 6.507812 -8.566406 6.46875 -7.800781 6.46875 -6.9375 C 6.46875 -6.039062 6.507812 -5.257812 6.59375 -4.59375 C 6.6875 -3.925781 6.832031 -3.367188 7.03125 -2.921875 C 7.238281 -2.484375 7.507812 -2.15625 7.84375 -1.9375 C 8.1875 -1.726562 8.617188 -1.625 9.140625 -1.625 Z M 9.140625 -1.625 "/></g></g></g><g fill="#f17604" fill-opacity="1"><g transform="translate(226.369824, 299.837558)"><g><path d="M 5.21875 -3.890625 C 5.21875 -3.140625 5.335938 -2.578125 5.578125 -2.203125 C 5.816406 -1.828125 6.191406 -1.640625 6.703125 -1.640625 C 7.078125 -1.640625 7.414062 -1.71875 7.71875 -1.875 C 8.019531 -2.03125 8.273438 -2.253906 8.484375 -2.546875 C 8.703125 -2.835938 8.867188 -3.1875 8.984375 -3.59375 C 9.097656 -4.007812 9.15625 -4.472656 9.15625 -4.984375 L 9.15625 -6.9375 L 7.984375 -6.875 C 7.472656 -6.84375 7.035156 -6.753906 6.671875 -6.609375 C 6.316406 -6.472656 6.03125 -6.28125 5.8125 -6.03125 C 5.601562 -5.789062 5.453125 -5.488281 5.359375 -5.125 C 5.265625 -4.769531 5.21875 -4.359375 5.21875 -3.890625 Z M 7.546875 -12.734375 C 7.210938 -12.734375 6.929688 -12.660156 6.703125 -12.515625 C 6.484375 -12.378906 6.304688 -12.1875 6.171875 -11.9375 C 6.035156 -11.6875 5.9375 -11.390625 5.875 -11.046875 C 5.820312 -10.703125 5.796875 -10.320312 5.796875 -9.90625 C 4.617188 -9.90625 3.734375 -10.035156 3.140625 -10.296875 C 2.554688 -10.566406 2.265625 -11.019531 2.265625 -11.65625 C 2.265625 -12.132812 2.40625 -12.539062 2.6875 -12.875 C 2.976562 -13.21875 3.367188 -13.492188 3.859375 -13.703125 C 4.347656 -13.921875 4.914062 -14.078125 5.5625 -14.171875 C 6.207031 -14.273438 6.898438 -14.328125 7.640625 -14.328125 C 8.554688 -14.328125 9.359375 -14.242188 10.046875 -14.078125 C 10.734375 -13.921875 11.300781 -13.671875 11.75 -13.328125 C 12.207031 -12.984375 12.550781 -12.523438 12.78125 -11.953125 C 13.007812 -11.390625 13.125 -10.703125 13.125 -9.890625 L 13.125 -3.234375 C 13.125 -2.878906 13.148438 -2.582031 13.203125 -2.34375 C 13.253906 -2.101562 13.335938 -1.910156 13.453125 -1.765625 C 13.578125 -1.628906 13.738281 -1.53125 13.9375 -1.46875 C 14.144531 -1.414062 14.394531 -1.390625 14.6875 -1.390625 L 14.796875 -1.390625 L 14.796875 0 L 9.9375 0 L 9.390625 -1.796875 L 9.15625 -1.796875 C 8.875 -1.453125 8.601562 -1.148438 8.34375 -0.890625 C 8.09375 -0.628906 7.820312 -0.410156 7.53125 -0.234375 C 7.238281 -0.0664062 6.910156 0.0507812 6.546875 0.125 C 6.191406 0.207031 5.769531 0.25 5.28125 0.25 C 4.695312 0.25 4.15625 0.164062 3.65625 0 C 3.164062 -0.164062 2.734375 -0.425781 2.359375 -0.78125 C 1.992188 -1.132812 1.703125 -1.578125 1.484375 -2.109375 C 1.273438 -2.640625 1.171875 -3.265625 1.171875 -3.984375 C 1.171875 -5.398438 1.65625 -6.445312 2.625 -7.125 C 3.601562 -7.8125 5.066406 -8.1875 7.015625 -8.25 L 9.15625 -8.3125 L 9.15625 -9.765625 C 9.15625 -10.191406 9.140625 -10.585938 9.109375 -10.953125 C 9.078125 -11.316406 9.003906 -11.628906 8.890625 -11.890625 C 8.785156 -12.160156 8.625 -12.367188 8.40625 -12.515625 C 8.1875 -12.660156 7.898438 -12.734375 7.546875 -12.734375 Z M 7.546875 -12.734375 "/></g></g></g><g fill="#f17604" fill-opacity="1"><g transform="translate(242.005485, 299.837558)"><g><path d="M 9.234375 0 L 0.515625 0 L 0.515625 -1.390625 L 0.59375 -1.390625 C 0.894531 -1.390625 1.164062 -1.410156 1.40625 -1.453125 C 1.65625 -1.492188 1.867188 -1.578125 2.046875 -1.703125 C 2.222656 -1.835938 2.359375 -2.03125 2.453125 -2.28125 C 2.554688 -2.53125 2.609375 -2.859375 2.609375 -3.265625 L 2.609375 -10.828125 C 2.609375 -11.210938 2.5625 -11.519531 2.46875 -11.75 C 2.382812 -11.988281 2.257812 -12.171875 2.09375 -12.296875 C 1.925781 -12.421875 1.726562 -12.5 1.5 -12.53125 C 1.269531 -12.570312 1.007812 -12.59375 0.71875 -12.59375 L 0.65625 -12.59375 L 0.65625 -13.984375 L 5.921875 -13.984375 L 6.453125 -11.953125 L 6.578125 -11.953125 C 6.742188 -12.335938 6.925781 -12.675781 7.125 -12.96875 C 7.332031 -13.269531 7.578125 -13.515625 7.859375 -13.703125 C 8.148438 -13.898438 8.488281 -14.046875 8.875 -14.140625 C 9.257812 -14.242188 9.71875 -14.296875 10.25 -14.296875 C 11.28125 -14.296875 12.035156 -14.113281 12.515625 -13.75 C 13.003906 -13.394531 13.25 -12.875 13.25 -12.1875 C 13.25 -11.382812 12.957031 -10.757812 12.375 -10.3125 C 11.800781 -9.875 10.988281 -9.65625 9.9375 -9.65625 C 9.9375 -10.007812 9.914062 -10.320312 9.875 -10.59375 C 9.84375 -10.875 9.773438 -11.101562 9.671875 -11.28125 C 9.578125 -11.457031 9.445312 -11.59375 9.28125 -11.6875 C 9.113281 -11.78125 8.90625 -11.828125 8.65625 -11.828125 C 8.351562 -11.828125 8.09375 -11.75 7.875 -11.59375 C 7.65625 -11.4375 7.46875 -11.238281 7.3125 -11 C 7.15625 -10.757812 7.03125 -10.484375 6.9375 -10.171875 C 6.84375 -9.867188 6.765625 -9.5625 6.703125 -9.25 C 6.648438 -8.945312 6.613281 -8.65625 6.59375 -8.375 C 6.582031 -8.09375 6.578125 -7.847656 6.578125 -7.640625 L 6.578125 -3.140625 C 6.578125 -2.753906 6.625 -2.441406 6.71875 -2.203125 C 6.8125 -1.972656 6.9375 -1.796875 7.09375 -1.671875 C 7.257812 -1.554688 7.453125 -1.476562 7.671875 -1.4375 C 7.898438 -1.40625 8.140625 -1.390625 8.390625 -1.390625 L 9.234375 -1.390625 Z M 9.234375 0 "/></g></g></g><g fill="#f17604" fill-opacity="1"><g transform="translate(255.653239, 299.837558)"><g><path d="M 16.609375 0 L 16.234375 0 C 15.285156 0 14.488281 -0.0195312 13.84375 -0.0625 C 13.195312 -0.101562 12.640625 -0.203125 12.171875 -0.359375 C 11.703125 -0.515625 11.296875 -0.742188 10.953125 -1.046875 C 10.617188 -1.359375 10.28125 -1.78125 9.9375 -2.3125 L 7.625 -5.96875 L 6.578125 -5.203125 L 6.578125 -3.078125 C 6.578125 -2.703125 6.632812 -2.40625 6.75 -2.1875 C 6.875 -1.96875 7.023438 -1.796875 7.203125 -1.671875 C 7.390625 -1.554688 7.59375 -1.476562 7.8125 -1.4375 C 8.039062 -1.40625 8.25 -1.390625 8.4375 -1.390625 L 8.734375 -1.390625 L 8.734375 0 L 0.453125 0 L 0.453125 -1.390625 L 0.75 -1.390625 C 0.945312 -1.390625 1.148438 -1.40625 1.359375 -1.4375 C 1.578125 -1.476562 1.78125 -1.554688 1.96875 -1.671875 C 2.15625 -1.796875 2.304688 -1.96875 2.421875 -2.1875 C 2.546875 -2.40625 2.609375 -2.703125 2.609375 -3.078125 L 2.609375 -16.859375 C 2.609375 -17.203125 2.546875 -17.476562 2.421875 -17.6875 C 2.304688 -17.894531 2.15625 -18.054688 1.96875 -18.171875 C 1.78125 -18.285156 1.578125 -18.359375 1.359375 -18.390625 C 1.140625 -18.429688 0.9375 -18.453125 0.75 -18.453125 L 0.453125 -18.453125 L 0.453125 -19.828125 L 6.578125 -19.828125 L 6.578125 -9.765625 C 6.578125 -9.523438 6.566406 -9.25 6.546875 -8.9375 C 6.535156 -8.625 6.523438 -8.328125 6.515625 -8.046875 C 6.484375 -7.722656 6.460938 -7.390625 6.453125 -7.046875 L 9.734375 -10.734375 C 10.023438 -11.054688 10.210938 -11.3125 10.296875 -11.5 C 10.390625 -11.6875 10.4375 -11.847656 10.4375 -11.984375 C 10.4375 -12.203125 10.316406 -12.367188 10.078125 -12.484375 C 9.847656 -12.609375 9.515625 -12.671875 9.078125 -12.671875 L 9.078125 -13.984375 L 15.65625 -13.984375 L 15.65625 -12.671875 C 15.050781 -12.671875 14.457031 -12.492188 13.875 -12.140625 C 13.300781 -11.796875 12.671875 -11.234375 11.984375 -10.453125 L 10.328125 -8.59375 L 13.796875 -3.421875 C 14.253906 -2.722656 14.71875 -2.207031 15.1875 -1.875 C 15.65625 -1.550781 16.097656 -1.390625 16.515625 -1.390625 L 16.609375 -1.390625 Z M 16.609375 0 "/></g></g></g></svg>